<?xml version="1.0" encoding="UTF-8" standalone="no"?>
<!DOCTYPE svg PUBLIC "-//W3C//DTD SVG 1.1//EN"
 "http://www.w3.org/Graphics/SVG/1.1/DTD/svg11.dtd">
<!-- Generated by graphviz version 2.44.0 (0)
 -->
<!-- Title: G Pages: 1 -->
<svg width="649pt" height="889pt"
 viewBox="0.00 0.00 648.91 889.41" xmlns="http://www.w3.org/2000/svg" xmlns:xlink="http://www.w3.org/1999/xlink">
<g id="graph0" class="graph" transform="scale(1 1) rotate(0) translate(28.8 860.61)">
<title>G</title>
<!-- rootNode -->
<g id="node1" class="node">
<title>rootNode</title>
<ellipse fill="grey" stroke="grey" cx="152.72" cy="-813.81" rx="55.79" ry="18"/>
<text text-anchor="middle" x="152.72" y="-810.11" font-family="Times-Roman" font-size="14.00">Root node</text>
</g>
<!-- v1Node -->
<g id="node2" class="node">
<title>v1Node</title>
<ellipse fill="grey" stroke="grey" cx="152.72" cy="-718.81" rx="27" ry="18"/>
<text text-anchor="middle" x="152.72" y="-715.11" font-family="Times-Roman" font-size="14.00">v1</text>
</g>
<!-- rootNode&#45;&gt;v1Node -->
<g id="edge1" class="edge">
<title>rootNode&#45;&gt;v1Node</title>
<path fill="none" stroke="black" d="M152.72,-795.76C152.72,-782.21 152.72,-762.99 152.72,-747.28"/>
<polygon fill="black" stroke="black" points="156.22,-747.08 152.72,-737.08 149.22,-747.08 156.22,-747.08"/>
</g>
<!-- devicesNode -->
<g id="node3" class="node">
<title>devicesNode</title>
<ellipse fill="grey" stroke="grey" cx="152.72" cy="-609.81" rx="44.69" ry="18"/>
<text text-anchor="middle" x="152.72" y="-606.11" font-family="Times-Roman" font-size="14.00">devices</text>
</g>
<!-- v1Node&#45;&gt;devicesNode -->
<g id="edge2" class="edge">
<title>v1Node&#45;&gt;devicesNode</title>
<path fill="none" stroke="black" d="M152.72,-700.62C152.72,-683.77 152.72,-657.83 152.72,-638.15"/>
<polygon fill="black" stroke="black" points="156.22,-637.96 152.72,-627.96 149.22,-637.96 156.22,-637.96"/>
<text text-anchor="middle" x="157.72" y="-660.61" font-family="Times-Roman" font-size="14.00"> /</text>
</g>
<!-- deviceClientIDNode -->
<g id="node4" class="node">
<title>deviceClientIDNode</title>
<ellipse fill="grey" stroke="grey" cx="152.72" cy="-470.73" rx="130.63" ry="48.17"/>
<text text-anchor="middle" x="152.72" y="-489.53" font-family="Times-Roman" font-size="14.00">{deviceClientID}</text>
<text text-anchor="middle" x="152.72" y="-474.53" font-family="Times-Roman" font-size="14.00">Unique identifier of the</text>
<text text-anchor="middle" x="152.72" y="-459.53" font-family="Times-Roman" font-size="14.00">device that is generated</text>
<text text-anchor="middle" x="152.72" y="-444.53" font-family="Times-Roman" font-size="14.00">on the platform.</text>
</g>
<!-- devicesNode&#45;&gt;deviceClientIDNode -->
<g id="edge3" class="edge">
<title>devicesNode&#45;&gt;deviceClientIDNode</title>
<path fill="none" stroke="black" d="M152.72,-591.73C152.72,-575.98 152.72,-551.7 152.72,-529.08"/>
<polygon fill="black" stroke="black" points="156.22,-528.84 152.72,-518.84 149.22,-528.84 156.22,-528.84"/>
<text text-anchor="middle" x="157.72" y="-551.61" font-family="Times-Roman" font-size="14.00"> /</text>
</g>
<!-- deviceTelemetryNode -->
<g id="node5" class="node">
<title>deviceTelemetryNode</title>
<ellipse fill="grey" stroke="grey" cx="111.72" cy="-301.56" rx="111.95" ry="37.45"/>
<text text-anchor="middle" x="111.72" y="-312.86" font-family="Times-Roman" font-size="14.00">telemetry</text>
<text text-anchor="middle" x="111.72" y="-297.86" font-family="Times-Roman" font-size="14.00">PUBLISH</text>
<text text-anchor="middle" x="111.72" y="-282.86" font-family="Times-Roman" font-size="14.00">Publish sensor data.</text>
</g>
<!-- deviceClientIDNode&#45;&gt;deviceTelemetryNode -->
<g id="edge4" class="edge">
<title>deviceClientIDNode&#45;&gt;deviceTelemetryNode</title>
<path fill="none" stroke="black" d="M141.19,-422.72C135.54,-399.67 128.75,-372 123.12,-349.02"/>
<polygon fill="black" stroke="black" points="126.48,-348.04 120.7,-339.16 119.68,-349.71 126.48,-348.04"/>
<text text-anchor="middle" x="136.22" y="-382.45" font-family="Times-Roman" font-size="14.00">/</text>
</g>
<!-- deviceDataNode -->
<g id="node6" class="node">
<title>deviceDataNode</title>
<ellipse fill="grey" stroke="grey" cx="438.72" cy="-301.56" rx="142.67" ry="48.17"/>
<text text-anchor="middle" x="438.72" y="-320.36" font-family="Times-Roman" font-size="14.00">data</text>
<text text-anchor="middle" x="438.72" y="-305.36" font-family="Times-Roman" font-size="14.00">Used to establish a</text>
<text text-anchor="middle" x="438.72" y="-290.36" font-family="Times-Roman" font-size="14.00">full&#45;duplex communication</text>
<text text-anchor="middle" x="438.72" y="-275.36" font-family="Times-Roman" font-size="14.00">channel.</text>
</g>
<!-- deviceClientIDNode&#45;&gt;deviceDataNode -->
<g id="edge5" class="edge">
<title>deviceClientIDNode&#45;&gt;deviceDataNode</title>
<path fill="none" stroke="black" d="M221.23,-429.69C262.82,-405.38 316.07,-374.26 359.47,-348.89"/>
<polygon fill="black" stroke="black" points="361.42,-351.8 368.29,-343.73 357.89,-345.76 361.42,-351.8"/>
<text text-anchor="middle" x="309.72" y="-382.45" font-family="Times-Roman" font-size="14.00"> /</text>
</g>
<!-- deviceDataRequestNode -->
<g id="node7" class="node">
<title>deviceDataRequestNode</title>
<ellipse fill="grey" stroke="grey" cx="327.72" cy="-153.61" rx="54.39" ry="26.74"/>
<text text-anchor="middle" x="327.72" y="-157.41" font-family="Times-Roman" font-size="14.00">request</text>
<text text-anchor="middle" x="327.72" y="-142.41" font-family="Times-Roman" font-size="14.00">PUBLISH</text>
</g>
<!-- deviceDataNode&#45;&gt;deviceDataRequestNode -->
<g id="edge6" class="edge">
<title>deviceDataNode&#45;&gt;deviceDataRequestNode</title>
<path fill="none" stroke="black" d="M403.91,-254.78C387.22,-232.84 367.62,-207.06 352.47,-187.16"/>
<polygon fill="black" stroke="black" points="355.12,-184.85 346.28,-179.01 349.55,-189.09 355.12,-184.85"/>
<text text-anchor="middle" x="385.72" y="-213.28" font-family="Times-Roman" font-size="14.00"> /</text>
</g>
<!-- deviceDataExternalNode -->
<g id="node9" class="node">
<title>deviceDataExternalNode</title>
<ellipse fill="grey" stroke="grey" cx="522.72" cy="-153.61" rx="68.68" ry="26.74"/>
<text text-anchor="middle" x="522.72" y="-157.41" font-family="Times-Roman" font-size="14.00">external</text>
<text text-anchor="middle" x="522.72" y="-142.41" font-family="Times-Roman" font-size="14.00">SUBSCRIBE</text>
</g>
<!-- deviceDataNode&#45;&gt;deviceDataExternalNode -->
<g id="edge8" class="edge">
<title>deviceDataNode&#45;&gt;deviceDataExternalNode</title>
<path fill="none" stroke="black" d="M465.53,-253.98C477.72,-232.81 491.88,-208.21 503.06,-188.78"/>
<polygon fill="black" stroke="black" points="506.17,-190.39 508.12,-179.97 500.1,-186.9 506.17,-190.39"/>
<text text-anchor="middle" x="495.72" y="-213.28" font-family="Times-Roman" font-size="14.00"> /</text>
</g>
<!-- deviceDataRequestReceiveNode -->
<g id="node8" class="node">
<title>deviceDataRequestReceiveNode</title>
<ellipse fill="grey" stroke="grey" cx="327.72" cy="-26.87" rx="68.68" ry="26.74"/>
<text text-anchor="middle" x="327.72" y="-30.67" font-family="Times-Roman" font-size="14.00">receive</text>
<text text-anchor="middle" x="327.72" y="-15.67" font-family="Times-Roman" font-size="14.00">SUBSCRIBE</text>
</g>
<!-- deviceDataRequestNode&#45;&gt;deviceDataRequestReceiveNode -->
<g id="edge7" class="edge">
<title>deviceDataRequestNode&#45;&gt;deviceDataRequestReceiveNode</title>
<path fill="none" stroke="black" d="M327.72,-126.46C327.72,-108.41 327.72,-84.18 327.72,-64.25"/>
<polygon fill="black" stroke="black" points="331.22,-63.99 327.72,-53.99 324.22,-63.99 331.22,-63.99"/>
<text text-anchor="middle" x="332.72" y="-86.54" font-family="Times-Roman" font-size="14.00"> /</text>
</g>
<!-- deviceDataExternalSendNode -->
<g id="node10" class="node">
<title>deviceDataExternalSendNode</title>
<ellipse fill="grey" stroke="grey" cx="522.72" cy="-26.87" rx="54.39" ry="26.74"/>
<text text-anchor="middle" x="522.72" y="-30.67" font-family="Times-Roman" font-size="14.00">send</text>
<text text-anchor="middle" x="522.72" y="-15.67" font-family="Times-Roman" font-size="14.00">PUBLISH</text>
</g>
<!-- deviceDataExternalNode&#45;&gt;deviceDataExternalSendNode -->
<g id="edge9" class="edge">
<title>deviceDataExternalNode&#45;&gt;deviceDataExternalSendNode</title>
<path fill="none" stroke="black" d="M522.72,-126.46C522.72,-108.41 522.72,-84.18 522.72,-64.25"/>
<polygon fill="black" stroke="black" points="526.22,-63.99 522.72,-53.99 519.22,-63.99 526.22,-63.99"/>
<text text-anchor="middle" x="527.72" y="-86.54" font-family="Times-Roman" font-size="14.00"> /</text>
</g>
</g>
</svg>
